# xmcd
#
# Track frame offsets:
#	150
#	27832
#	50835
#	66982
#	85353
#	109360
#	135530
#	155027
#	172468
#	206960
#
# Disc length: 3023 seconds
#
# Revision: 0
# Processed by: cddbd v1.5.2PL0 Copyright (c) Steve Scherf et al.
# Submitted via: dBpowerAMP V4.0
#
DISCID=a00bcd0a
DTITLE=Various Artist - Live At The Cadillac Club
DYEAR=2008
DGENRE=Blues
TTITLE0=Hip Hug Her
TTITLE1=Walkin' Out On You
TTITLE2=Keep Your Business Off The Streets
TTITLE3=Love Bones
TTITLE4=Rainy Night In Georgia
TTITLE5=It's Too Late To Try To Do Right
TTITLE6=Been A Long Time Coming
TTITLE7=Foolish Pride
TTITLE8=Reconsider Baby
TTITLE9=Root Doctor - The Turning Point
EXTD=
EXTT0=
EXTT1=
EXTT2=
EXTT3=
EXTT4=
EXTT5=
EXTT6=
EXTT7=
EXTT8=
EXTT9=
PLAYORDER=
